<svg width="24" height="37" viewBox="0 0 24 37" fill="none" xmlns="http://www.w3.org/2000/svg">
<path d="M19.2806 27.0306L12.5306 33.7806C12.461 33.8504 12.3783 33.9057 12.2872 33.9434C12.1962 33.9812 12.0986 34.0006 12 34.0006C11.9014 34.0006 11.8038 33.9812 11.7128 33.9434C11.6217 33.9057 11.539 33.8504 11.4694 33.7806L4.71937 27.0306C4.57864 26.8899 4.49958 26.699 4.49958 26.5C4.49958 26.301 4.57864 26.1101 4.71937 25.9694C4.8601 25.8286 5.05097 25.7496 5.25 25.7496C5.44902 25.7496 5.63989 25.8286 5.78062 25.9694L11.25 31.4397V16.75C11.25 16.5511 11.329 16.3603 11.4697 16.2197C11.6103 16.079 11.8011 16 12 16C12.1989 16 12.3897 16.079 12.5303 16.2197C12.671 16.3603 12.75 16.5511 12.75 16.75V31.4397L18.2194 25.9694C18.3601 25.8286 18.551 25.7496 18.75 25.7496C18.949 25.7496 19.1399 25.8286 19.2806 25.9694C19.4214 26.1101 19.5004 26.301 19.5004 26.5C19.5004 26.699 19.4214 26.8899 19.2806 27.0306Z" fill="white" stroke="white" stroke-width="0.5"/>
<line x1="12" y1="1" x2="12" y2="18" stroke="white" stroke-width="2" stroke-linecap="round"/>
</svg>
